<svg version="1.1" id="Layer_1" xmlns="http://www.w3.org/2000/svg" xmlns:xlink="http://www.w3.org/1999/xlink" x="0px" y="0px"
	 width="100%" viewBox="0 0 1080 1080" enable-background="new 0 0 1080 1080" xml:space="preserve">
<path fill="#FFFFFF" opacity="1.000000" stroke="none" 
	d="
M571.000000,1081.000000 
	C380.688568,1081.000000 190.877151,1081.000000 1.032859,1081.000000 
	C1.032859,721.063477 1.032859,361.126892 1.032859,1.095172 
	C360.894989,1.095172 720.790039,1.095172 1080.842529,1.095172 
	C1080.842529,360.999939 1080.842529,720.999939 1080.842529,1081.000000 
	C911.126465,1081.000000 741.313232,1081.000000 571.000000,1081.000000 
M748.026794,284.149261 
	C746.593262,272.450867 744.136963,260.964905 738.591370,250.501114 
	C734.436218,242.660995 730.036255,234.735031 720.745300,230.411774 
	C713.799194,219.828125 704.793823,211.607071 692.798828,207.236115 
	C674.560242,200.589981 655.787292,199.306122 636.798340,203.162811 
	C618.134583,206.953476 603.688416,216.943558 595.073792,234.181000 
	C585.541077,253.255615 583.642090,273.654114 586.548157,294.501953 
	C589.191223,313.463623 598.417175,329.342194 611.515015,342.925079 
	C625.961487,357.906555 640.669128,372.644897 655.542419,387.203674 
	C671.891418,403.206940 676.814758,422.690857 674.016663,444.716217 
	C673.057129,452.268707 669.947754,455.250549 662.057495,455.783661 
	C661.721741,452.332214 661.141907,448.883942 661.096558,445.428680 
	C660.965576,435.458893 660.914368,425.483429 661.122437,415.516296 
	C661.196533,411.964844 659.992249,410.824280 656.539185,411.024933 
	C652.734802,411.245941 648.902466,410.988220 645.017761,410.013763 
	C645.017761,405.412781 645.017761,400.811798 645.017761,396.225739 
	C624.780945,396.225739 605.221497,396.225739 586.186279,396.225739 
	C586.186279,412.715088 585.174377,428.911255 586.425842,444.930603 
	C588.256836,468.369080 595.498596,489.696594 616.876465,504.026093 
	C617.437073,505.020966 617.849670,506.143616 618.581055,506.991089 
	C626.431946,516.087830 636.397644,521.882751 647.890991,524.921265 
	C665.277466,529.517761 682.909851,530.567078 700.575378,526.807678 
	C715.783997,523.571167 728.117920,515.928162 736.476501,502.328186 
	C744.864990,488.679504 748.253662,473.619385 750.061707,458.000671 
	C750.218506,456.645996 751.240112,455.391449 751.954773,454.892792 
	C755.350952,475.311157 763.892578,492.592194 781.914246,504.792877 
	C782.766663,506.167572 783.423096,507.724121 784.502991,508.887726 
	C792.067627,517.038452 801.549927,522.129822 812.138062,524.917725 
	C827.341187,528.920837 842.812561,530.194580 858.479919,527.956970 
	C881.133423,524.721558 897.574097,513.546265 906.285522,491.718597 
	C913.383362,473.933716 914.933350,455.483337 915.187805,436.579712 
	C915.513672,412.372894 909.235352,390.618134 893.802368,371.837097 
	C889.983948,367.190155 885.323853,363.234741 880.474487,358.632080 
	C875.365295,352.960663 870.485229,347.060577 865.099854,341.664856 
	C853.485229,330.027924 841.610962,318.650116 829.832397,306.434662 
	C827.961121,301.709930 825.403870,297.130432 824.366211,292.229187 
	C822.413208,283.003998 826.154480,274.415161 835.095398,274.928833 
	C835.095398,280.468536 835.095398,286.008240 835.095398,292.043152 
	C841.114075,292.043152 846.041931,292.043152 850.992126,292.969299 
	C851.004272,296.459076 851.138977,299.954010 850.992065,303.437073 
	C850.859924,306.570801 851.978699,307.966156 855.278198,307.950867 
	C873.391541,307.867004 891.505859,307.849731 909.618896,307.962585 
	C913.356384,307.985840 914.199646,306.200073 913.889648,303.002625 
	C913.538757,299.383667 913.247864,295.757629 913.005737,292.129700 
	C911.970032,276.612976 909.075195,261.546539 901.324097,247.854034 
	C897.418945,240.955444 893.079712,234.235474 884.958313,230.237167 
	C878.662292,221.271790 871.306396,213.498886 861.034668,209.018753 
	C841.495056,200.496338 821.196594,199.024963 800.545471,203.343292 
	C774.735596,208.740341 759.260193,225.363861 753.401978,250.450699 
	C750.788086,261.644165 750.842041,273.460602 749.165161,284.996857 
	C748.818420,284.997284 748.471619,284.997711 748.026794,284.149261 
M976.198975,218.915482 
	C976.198975,214.146088 976.198975,209.376694 976.198975,204.522797 
	C956.118103,204.522797 936.750244,204.522797 917.459106,204.522797 
	C917.459106,306.562286 917.459106,408.217346 917.459106,510.329712 
	C922.847595,510.329712 927.832092,510.329712 932.903931,511.211151 
	C932.903931,515.975037 932.903931,520.738892 932.903931,525.679443 
	C952.945923,525.679443 972.170349,525.679443 991.605835,525.679443 
	C991.605835,423.726532 991.605835,322.091034 991.605835,219.817612 
	C986.256409,219.817612 981.291748,219.817612 976.198975,218.915482 
M293.003479,511.753326 
	C293.003479,516.340698 293.003479,520.928040 293.003479,525.608276 
	C334.684418,525.608276 375.627838,525.608276 417.194061,525.608276 
	C417.194061,520.269287 417.194061,515.315002 418.057068,510.209442 
	C420.990570,510.224060 423.924072,510.238678 426.976105,511.128448 
	C426.766449,515.875671 426.556793,520.622864 426.339874,525.534424 
	C446.284607,525.534424 465.955261,525.534424 485.588745,525.534424 
	C486.844971,509.107910 488.065674,493.145844 489.295044,477.070496 
	C497.258881,477.070496 504.573853,477.070496 511.986359,477.941803 
	C512.939026,488.570740 513.891663,499.199646 514.885742,510.290588 
	C519.960999,510.290588 524.400513,510.290588 528.951172,511.106201 
	C529.307800,514.399231 530.024048,517.702881 529.927124,520.982544 
	C529.813721,524.816650 530.928467,526.158203 534.990295,526.095581 
	C550.474609,525.856628 565.964722,525.999573 581.452698,525.999817 
	C583.736206,525.999817 586.019775,525.999756 588.409485,525.999756 
	C588.178040,521.943359 588.093140,518.478943 587.763916,515.037903 
	C586.549744,502.346924 585.210388,489.667816 584.002930,476.976196 
	C582.857422,464.935059 581.869324,452.878876 580.718018,440.838287 
	C579.536011,428.477631 578.189636,416.132660 577.008423,403.771912 
	C575.873596,391.896179 574.928955,380.002136 573.772766,368.128601 
	C572.248352,352.473389 570.526489,336.837250 569.027161,321.179779 
	C567.858337,308.974365 566.971863,296.742096 565.830078,284.533905 
	C564.272644,267.881287 562.590210,251.240372 560.965149,234.594070 
	C560.530579,230.142670 561.689758,224.064590 559.244934,221.687805 
	C556.720764,219.233932 550.698242,220.378159 546.206055,219.949936 
	C545.874573,219.918335 545.541809,219.899948 545.056458,219.018829 
	C544.549744,214.123169 544.042969,209.227509 543.550232,204.467255 
	C508.727142,204.467255 474.497864,204.467255 439.941345,204.467255 
	C431.208130,294.470642 422.503937,384.175262 412.912018,473.946777 
	C409.136871,473.873749 405.361755,473.800751 401.402496,472.851135 
	C401.402496,468.112274 401.402496,463.373413 401.402496,457.936768 
	C385.100983,457.936768 369.573120,457.936768 354.029358,457.009460 
	C354.029358,378.184723 354.029358,299.359955 354.029358,219.756622 
	C348.366364,219.756622 343.417175,219.756622 338.319794,218.867554 
	C338.319794,214.106674 338.319794,209.345795 338.319794,204.526917 
	C317.486389,204.526917 297.447540,204.526917 277.376892,204.526917 
	C277.376892,306.791168 277.376892,408.661163 277.376892,510.784332 
	C282.787170,510.784332 287.907593,510.784332 293.003479,511.753326 
M210.967484,327.057983 
	C210.967484,331.835419 210.967484,336.612885 210.967484,341.645569 
	C231.557327,341.645569 251.449234,341.645569 271.647186,341.645569 
	C271.769165,339.902527 271.958069,338.449493 271.959229,336.996338 
	C271.972717,319.998840 272.244904,302.994873 271.859924,286.005920 
	C271.551880,272.412109 269.099365,259.043671 261.108093,247.705765 
	C257.247375,242.228226 251.626724,237.991119 246.277435,232.770615 
	C240.206451,223.330368 232.274948,215.871811 222.284561,210.747055 
	C201.650116,200.162231 179.970367,198.920990 157.679855,203.914459 
	C137.970078,208.329834 124.075554,219.859253 115.714447,238.243744 
	C109.120590,252.742401 106.201279,268.092957 106.100647,283.813660 
	C105.778595,334.123962 105.850296,384.437286 105.944344,434.749115 
	C105.956718,441.371979 106.546906,448.064240 107.618744,454.601501 
	C111.003098,475.243225 121.993965,491.144348 138.972015,503.849426 
	C145.611526,514.073181 155.536636,519.923889 166.583694,523.973877 
	C187.033432,531.471069 207.639221,530.135132 228.132309,524.071228 
	C245.547501,518.918091 257.896606,507.952545 265.423065,491.320099 
	C271.180359,478.597351 272.465729,465.086731 272.822937,451.501434 
	C273.277863,434.198700 272.943451,416.875031 272.923492,399.560364 
	C272.921478,397.807220 272.742004,396.054291 272.625031,393.942535 
	C267.050385,393.942535 262.069305,393.942535 256.960510,393.022583 
	C256.960510,388.239105 256.960510,383.455627 256.960510,378.574646 
	C236.016190,378.574646 215.673370,378.574646 195.010147,378.574646 
	C195.010147,398.164124 195.125671,417.314148 194.914490,436.460571 
	C194.871277,440.378113 194.053741,444.436188 192.783112,448.152557 
	C191.267502,452.585449 188.207962,455.882782 182.945663,455.269714 
	C182.651627,449.809601 182.110596,444.349823 182.102448,438.889282 
	C182.034103,393.115570 182.033447,347.341675 182.106888,301.567993 
	C182.114838,296.607391 182.490341,291.618958 183.102509,286.694031 
	C184.165344,278.143585 188.175339,274.028625 194.976898,274.993561 
	C194.976898,291.833069 194.976898,308.672607 194.976898,326.145782 
	C200.730988,326.145782 205.821075,326.145782 210.967484,327.057983 
z"/>
<path fill="#6A84A8" opacity="1.000000" stroke="none" 
	d="
M413.799713,473.879883 
	C422.503937,384.175262 431.208130,294.470642 439.941345,204.467255 
	C474.497864,204.467255 508.727142,204.467255 543.550232,204.467255 
	C544.042969,209.227509 544.549744,214.123169 545.089844,219.878815 
	C554.350586,317.008728 563.577820,413.278656 572.876160,510.290588 
	C557.758850,510.290588 543.299438,510.290588 528.840027,510.290588 
	C524.400513,510.290588 519.960999,510.290588 514.885742,510.290588 
	C513.891663,499.199646 512.939026,488.570740 511.974060,477.070465 
	C511.626038,472.395844 511.058563,468.594452 511.027100,464.788635 
	C511.001343,461.675171 509.757446,460.795502 506.818054,460.875122 
	C500.658325,461.042023 494.490906,460.925079 488.326660,460.924866 
	C483.404236,460.924683 478.481812,460.924835 473.488342,460.924835 
	C472.222534,477.701660 471.016174,493.690674 469.766510,510.253326 
	C455.110474,510.253326 440.984009,510.253326 426.857574,510.253326 
	C423.924072,510.238678 420.990570,510.224060 417.173950,510.191101 
	C414.547546,510.024902 412.804199,509.877014 411.014099,509.725159 
	C411.014099,507.098999 410.862885,505.093170 411.039734,503.116638 
	C411.912018,493.366791 412.871155,483.624695 413.799713,473.879883 
M500.126556,347.088531 
	C497.827148,316.769073 495.169525,286.486481 492.268097,256.228943 
	C491.347015,256.246155 490.425964,256.263367 489.504883,256.280579 
	C485.707794,308.001465 481.910706,359.722351 478.082794,411.862946 
	C484.169769,411.862946 489.626831,411.862946 495.987762,411.972076 
	C499.224426,411.972076 502.461090,411.972076 505.924072,411.972076 
	C504.718536,398.013245 503.625275,384.821747 502.423645,371.640106 
	C501.704437,363.750702 500.815674,355.876740 500.126556,347.088531 
z"/>
<path fill="#6A84A8" opacity="1.000000" stroke="none" 
	d="
M182.987503,456.145081 
	C188.207962,455.882782 191.267502,452.585449 192.783112,448.152557 
	C194.053741,444.436188 194.871277,440.378113 194.914490,436.460571 
	C195.125671,417.314148 195.010147,398.164124 195.010147,378.574646 
	C215.673370,378.574646 236.016190,378.574646 256.960510,378.574646 
	C256.960510,383.455627 256.960510,388.239105 256.977417,393.953735 
	C256.982819,405.362579 257.227783,415.848602 256.888000,426.315643 
	C256.544220,436.906189 256.283417,447.572296 254.791412,458.034943 
	C252.753448,472.325989 247.097336,485.467865 236.015656,495.067841 
	C216.718109,511.785034 193.313248,514.251892 169.032028,512.456909 
	C158.310837,511.664337 148.533508,507.578339 138.891525,503.164490 
	C121.993965,491.144348 111.003098,475.243225 107.618744,454.601501 
	C106.546906,448.064240 105.956718,441.371979 105.944344,434.749115 
	C105.850296,384.437286 105.778595,334.123962 106.100647,283.813660 
	C106.201279,268.092957 109.120590,252.742401 115.714447,238.243744 
	C124.075554,219.859253 137.970078,208.329834 157.679855,203.914459 
	C179.970367,198.920990 201.650116,200.162231 222.284561,210.747055 
	C232.274948,215.871811 240.206451,223.330368 246.623413,233.325394 
	C253.488052,246.035843 256.037994,259.107239 256.015472,272.790314 
	C255.989136,288.784546 256.023071,304.778809 256.006653,320.773071 
	C256.005005,322.377014 255.836014,323.980804 255.712723,326.145782 
	C240.498459,326.145782 225.704819,326.145782 210.911163,326.145782 
	C205.821075,326.145782 200.730988,326.145782 194.976898,326.145782 
	C194.976898,308.672607 194.976898,291.833069 194.971024,274.122528 
	C194.602524,271.295380 194.364990,269.305939 193.854767,267.389099 
	C192.031662,260.540100 188.468246,257.890808 181.230988,257.854279 
	C173.708221,257.816315 169.910873,260.497070 168.124451,267.440796 
	C167.467865,269.992889 166.990952,272.675446 166.988174,275.299072 
	C166.930649,329.769257 166.904404,384.239746 167.067841,438.709534 
	C167.078949,442.415466 168.208389,446.282104 169.569168,449.781799 
	C171.672089,455.190247 177.239517,457.559601 182.987503,456.145081 
z"/>
<path fill="#6A84A8" opacity="1.000000" stroke="none" 
	d="
M662.216858,456.557007 
	C669.947754,455.250549 673.057129,452.268707 674.016663,444.716217 
	C676.814758,422.690857 671.891418,403.206940 655.542419,387.203674 
	C640.669128,372.644897 625.961487,357.906555 611.515015,342.925079 
	C598.417175,329.342194 589.191223,313.463623 586.548157,294.501953 
	C583.642090,273.654114 585.541077,253.255615 595.073792,234.181000 
	C603.688416,216.943558 618.134583,206.953476 636.798340,203.162811 
	C655.787292,199.306122 674.560242,200.589981 692.798828,207.236115 
	C704.793823,211.607071 713.799194,219.828125 720.949280,230.994644 
	C731.046692,250.417953 733.786926,270.582001 733.013184,292.087738 
	C717.148682,292.087738 702.045593,292.087738 686.484253,292.009857 
	C681.124512,291.931976 676.222961,291.931976 670.879333,291.931976 
	C670.879333,285.351074 670.879333,279.713013 670.926514,273.639160 
	C670.971313,272.704773 670.976379,272.205994 670.965698,271.707550 
	C670.767273,262.436157 666.240906,257.449738 657.996460,257.417572 
	C649.239746,257.383453 643.770081,262.765472 644.026794,271.915314 
	C644.462524,287.438354 654.003967,297.633270 665.362549,307.015686 
	C682.366760,324.191376 699.190186,341.090424 716.027832,358.339844 
	C723.402893,368.900391 729.131348,379.925873 732.023926,392.226562 
	C736.861572,412.799225 735.893127,433.479645 732.467529,454.115173 
	C730.350952,466.864960 726.346741,479.019073 718.767578,489.647430 
	C707.021118,506.119476 689.717224,511.673645 670.657715,512.862427 
	C652.017029,514.025085 633.892761,511.334381 616.783081,503.359924 
	C595.498596,489.696594 588.256836,468.369080 586.425842,444.930603 
	C585.174377,428.911255 586.186279,412.715088 586.186279,396.225739 
	C605.221497,396.225739 624.780945,396.225739 645.017761,396.225739 
	C645.017761,400.811798 645.017761,405.412781 645.113831,410.890564 
	C645.425476,413.549377 645.803101,415.329102 645.828735,417.113861 
	C645.940613,424.891113 645.721985,432.679504 646.051025,440.445740 
	C646.527527,451.694183 652.555481,457.517670 662.216858,456.557007 
z"/>
<path fill="#6A84A8" opacity="1.000000" stroke="none" 
	d="
M850.969788,292.043152 
	C846.041931,292.043152 841.114075,292.043152 835.095398,292.043152 
	C835.095398,286.008240 835.095398,280.468536 835.085571,274.024231 
	C834.923462,263.795868 832.263611,259.339905 826.062683,258.020233 
	C814.239258,255.504013 805.824463,263.839172 808.300720,276.023743 
	C811.016785,289.388245 819.390381,299.046173 829.842957,307.166260 
	C841.610962,318.650116 853.485229,330.027924 865.099854,341.664856 
	C870.485229,347.060577 875.365295,352.960663 880.762329,359.151367 
	C885.070435,367.104004 889.737427,374.267303 892.977112,382.026611 
	C899.848755,398.485199 899.901489,415.942749 899.101440,433.442200 
	C898.444824,447.805695 896.243469,461.860260 890.779419,475.208344 
	C884.334900,490.951569 874.128540,502.938904 857.317383,508.540771 
	C841.115295,513.939636 824.640869,514.229248 808.146790,511.400879 
	C799.254883,509.876160 790.667542,506.575195 781.942810,504.075592 
	C763.892578,492.592194 755.350952,475.311157 751.967407,454.067261 
	C751.292725,445.535522 750.417725,437.840088 749.976196,430.119843 
	C749.608887,423.696991 749.750793,417.244965 749.703979,410.352783 
	C749.740845,405.332642 749.740845,400.765533 749.740845,396.247040 
	C770.238403,396.247040 789.891907,396.247040 810.009583,396.247040 
	C810.009583,401.416565 810.009583,406.204987 809.969482,411.461243 
	C809.962463,421.028778 809.794617,430.134857 810.078735,439.226776 
	C810.446228,450.983795 816.630676,457.438232 826.559570,456.605896 
	C833.605469,455.746521 837.325623,451.851715 838.178101,445.232941 
	C840.855896,424.443512 837.406372,405.353882 822.139648,389.804230 
	C807.196716,374.584381 791.956116,359.655731 777.078735,344.372833 
	C760.996948,327.852722 750.933899,308.422882 749.685181,284.994293 
	C750.842041,273.460602 750.788086,261.644165 753.401978,250.450699 
	C759.260193,225.363861 774.735596,208.740341 800.545471,203.343292 
	C821.196594,199.024963 841.495056,200.496338 861.034668,209.018753 
	C871.306396,213.498886 878.662292,221.271790 885.157349,230.864319 
	C895.497742,250.255737 897.522156,270.622986 897.930664,291.173859 
	C896.901367,291.581635 896.601624,291.803101 896.300659,291.804932 
	C881.190430,291.896149 866.080078,291.968628 850.969788,292.043152 
z"/>
<path fill="#6A84A8" opacity="1.000000" stroke="none" 
	d="
M354.045288,457.936768 
	C369.573120,457.936768 385.100983,457.936768 401.402496,457.936768 
	C401.402496,463.373413 401.402496,468.112274 401.356262,473.764526 
	C401.309998,486.271149 401.309998,497.864410 401.309998,510.079865 
	C398.584320,510.079865 396.638947,510.079834 394.693542,510.079834 
	C362.574036,510.079834 330.454559,510.068726 298.335083,510.109894 
	C296.565765,510.112152 294.797028,510.549469 293.028015,510.784302 
	C287.907593,510.784332 282.787170,510.784332 277.376892,510.784332 
	C277.376892,408.661163 277.376892,306.791168 277.376892,204.526917 
	C297.447540,204.526917 317.486389,204.526917 338.319794,204.526917 
	C338.319794,209.345795 338.319794,214.106674 338.281128,219.789444 
	C338.208954,221.209702 338.146149,221.708084 338.146088,222.206451 
	C338.136444,299.333344 338.129730,376.460236 338.139252,453.587128 
	C338.139404,454.877563 338.338562,456.167999 338.484222,457.936768 
	C343.833313,457.936768 348.939301,457.936768 354.045288,457.936768 
z"/>
<path fill="#6984A8" opacity="1.000000" stroke="none" 
	d="
M932.816589,510.329712 
	C927.832092,510.329712 922.847595,510.329712 917.459106,510.329712 
	C917.459106,408.217346 917.459106,306.562286 917.459106,204.522797 
	C936.750244,204.522797 956.118103,204.522797 976.198975,204.522797 
	C976.198975,209.376694 976.198975,214.146088 976.180542,219.843414 
	C976.162109,317.086945 976.162109,413.402557 976.162109,510.329712 
	C961.074463,510.329712 946.945557,510.329712 932.816589,510.329712 
z"/>
<path fill="#FEFEFF" opacity="1.000000" stroke="none" 
	d="
M749.425171,284.995575 
	C750.933899,308.422882 760.996948,327.852722 777.078735,344.372833 
	C791.956116,359.655731 807.196716,374.584381 822.139648,389.804230 
	C837.406372,405.353882 840.855896,424.443512 838.178101,445.232941 
	C837.325623,451.851715 833.605469,455.746521 826.491516,456.176270 
	C826.028381,442.919006 825.737183,430.123505 826.049500,417.342773 
	C826.176392,412.150269 824.410095,410.500275 819.468811,411.016937 
	C816.350647,411.342926 813.164978,411.023376 810.009583,410.993439 
	C810.009583,406.204987 810.009583,401.416565 810.009583,396.247040 
	C789.891907,396.247040 770.238403,396.247040 749.740845,396.247040 
	C749.740845,400.765533 749.740845,405.332642 749.370850,410.294220 
	C748.760193,410.478729 748.357361,410.304413 748.302246,410.053680 
	C745.070251,395.343475 738.254883,382.362030 728.771729,370.826172 
	C724.957764,366.186615 720.291748,362.247437 716.013550,357.989502 
	C699.190186,341.090424 682.366760,324.191376 665.325989,306.659485 
	C661.858643,299.461304 659.107117,292.839661 659.900085,285.187347 
	C660.572083,278.702087 664.539673,274.409973 670.879333,274.074921 
	C670.879333,279.713013 670.879333,285.351074 670.879333,291.931976 
	C676.222961,291.931976 681.124512,291.931976 686.489258,292.470154 
	C686.966187,296.659576 687.133423,300.318756 686.946289,303.959717 
	C686.790161,306.998627 687.914917,307.987854 690.952576,307.969360 
	C708.876526,307.859985 726.802429,307.825043 744.725525,307.990967 
	C748.396667,308.024963 749.309937,306.623840 749.072571,303.308594 
	C748.636169,297.213715 748.428162,291.102539 748.124878,284.998108 
	C748.471619,284.997711 748.818420,284.997284 749.425171,284.995575 
z"/>
<path fill="#C2CDDB" opacity="1.000000" stroke="none" 
	d="
M932.860229,510.770447 
	C946.945557,510.329712 961.074463,510.329712 976.162109,510.329712 
	C976.162109,413.402557 976.162109,317.086945 976.244629,220.294464 
	C981.291748,219.817612 986.256409,219.817612 991.605835,219.817612 
	C991.605835,322.091034 991.605835,423.726532 991.605835,525.679443 
	C972.170349,525.679443 952.945923,525.679443 932.903931,525.679443 
	C932.903931,520.738892 932.903931,515.975037 932.860229,510.770447 
z"/>
<path fill="#C3CEDC" opacity="1.000000" stroke="none" 
	d="
M528.895630,510.698395 
	C543.299438,510.290588 557.758850,510.290588 572.876160,510.290588 
	C563.577820,413.278656 554.350586,317.008728 545.166504,220.307098 
	C545.541809,219.899948 545.874573,219.918335 546.206055,219.949936 
	C550.698242,220.378159 556.720764,219.233932 559.244934,221.687805 
	C561.689758,224.064590 560.530579,230.142670 560.965149,234.594070 
	C562.590210,251.240372 564.272644,267.881287 565.830078,284.533905 
	C566.971863,296.742096 567.858337,308.974365 569.027161,321.179779 
	C570.526489,336.837250 572.248352,352.473389 573.772766,368.128601 
	C574.928955,380.002136 575.873596,391.896179 577.008423,403.771912 
	C578.189636,416.132660 579.536011,428.477631 580.718018,440.838287 
	C581.869324,452.878876 582.857422,464.935059 584.002930,476.976196 
	C585.210388,489.667816 586.549744,502.346924 587.763916,515.037903 
	C588.093140,518.478943 588.178040,521.943359 588.409485,525.999756 
	C586.019775,525.999756 583.736206,525.999817 581.452698,525.999817 
	C565.964722,525.999573 550.474609,525.856628 534.990295,526.095581 
	C530.928467,526.158203 529.813721,524.816650 529.927124,520.982544 
	C530.024048,517.702881 529.307800,514.399231 528.895630,510.698395 
z"/>
<path fill="#C3CEDC" opacity="1.000000" stroke="none" 
	d="
M781.928528,504.434235 
	C790.667542,506.575195 799.254883,509.876160 808.146790,511.400879 
	C824.640869,514.229248 841.115295,513.939636 857.317383,508.540771 
	C874.128540,502.938904 884.334900,490.951569 890.779419,475.208344 
	C896.243469,461.860260 898.444824,447.805695 899.101440,433.442200 
	C899.901489,415.942749 899.848755,398.485199 892.977112,382.026611 
	C889.737427,374.267303 885.070435,367.104004 881.050415,359.316040 
	C885.323853,363.234741 889.983948,367.190155 893.802368,371.837097 
	C909.235352,390.618134 915.513672,412.372894 915.187805,436.579712 
	C914.933350,455.483337 913.383362,473.933716 906.285522,491.718597 
	C897.574097,513.546265 881.133423,524.721558 858.479919,527.956970 
	C842.812561,530.194580 827.341187,528.920837 812.138062,524.917725 
	C801.549927,522.129822 792.067627,517.038452 784.502991,508.887726 
	C783.423096,507.724121 782.766663,506.167572 781.928528,504.434235 
z"/>
<path fill="#C3CEDC" opacity="1.000000" stroke="none" 
	d="
M716.027832,358.339844 
	C720.291748,362.247437 724.957764,366.186615 728.771729,370.826172 
	C738.254883,382.362030 745.070251,395.343475 748.302246,410.053680 
	C748.357361,410.304413 748.760193,410.478729 749.333984,410.747314 
	C749.750793,417.244965 749.608887,423.696991 749.976196,430.119843 
	C750.417725,437.840088 751.292725,445.535522 751.920044,453.666046 
	C751.240112,455.391449 750.218506,456.645996 750.061707,458.000671 
	C748.253662,473.619385 744.864990,488.679504 736.476501,502.328186 
	C728.117920,515.928162 715.783997,523.571167 700.575378,526.807678 
	C682.909851,530.567078 665.277466,529.517761 647.890991,524.921265 
	C636.397644,521.882751 626.431946,516.087830 618.581055,506.991089 
	C617.849670,506.143616 617.437073,505.020966 616.829773,503.692993 
	C633.892761,511.334381 652.017029,514.025085 670.657715,512.862427 
	C689.717224,511.673645 707.021118,506.119476 718.767578,489.647430 
	C726.346741,479.019073 730.350952,466.864960 732.467529,454.115173 
	C735.893127,433.479645 736.861572,412.799225 732.023926,392.226562 
	C729.131348,379.925873 723.402893,368.900391 716.027832,358.339844 
z"/>
<path fill="#C1CCDB" opacity="1.000000" stroke="none" 
	d="
M354.037323,457.473114 
	C348.939301,457.936768 343.833313,457.936768 338.484222,457.936768 
	C338.338562,456.167999 338.139404,454.877563 338.139252,453.587128 
	C338.129730,376.460236 338.136444,299.333344 338.146088,222.206451 
	C338.146149,221.708084 338.208954,221.209702 338.355225,220.233978 
	C343.417175,219.756622 348.366364,219.756622 354.029358,219.756622 
	C354.029358,299.359955 354.029358,378.184723 354.037323,457.473114 
z"/>
<path fill="#C4CEDC" opacity="1.000000" stroke="none" 
	d="
M138.931763,503.506958 
	C148.533508,507.578339 158.310837,511.664337 169.032028,512.456909 
	C193.313248,514.251892 216.718109,511.785034 236.015656,495.067841 
	C247.097336,485.467865 252.753448,472.325989 254.791412,458.034943 
	C256.283417,447.572296 256.544220,436.906189 256.888000,426.315643 
	C257.227783,415.848602 256.982819,405.362579 257.041260,394.413696 
	C262.069305,393.942535 267.050385,393.942535 272.625031,393.942535 
	C272.742004,396.054291 272.921478,397.807220 272.923492,399.560364 
	C272.943451,416.875031 273.277863,434.198700 272.822937,451.501434 
	C272.465729,465.086731 271.180359,478.597351 265.423065,491.320099 
	C257.896606,507.952545 245.547501,518.918091 228.132309,524.071228 
	C207.639221,530.135132 187.033432,531.471069 166.583694,523.973877 
	C155.536636,519.923889 145.611526,514.073181 138.931763,503.506958 
z"/>
<path fill="#C3CEDC" opacity="1.000000" stroke="none" 
	d="
M182.966583,455.707397 
	C177.239517,457.559601 171.672089,455.190247 169.569168,449.781799 
	C168.208389,446.282104 167.078949,442.415466 167.067841,438.709534 
	C166.904404,384.239746 166.930649,329.769257 166.988174,275.299072 
	C166.990952,272.675446 167.467865,269.992889 168.124451,267.440796 
	C169.910873,260.497070 173.708221,257.816315 181.230988,257.854279 
	C188.468246,257.890808 192.031662,260.540100 193.854767,267.389099 
	C194.364990,269.305939 194.602524,271.295380 194.928543,273.659882 
	C188.175339,274.028625 184.165344,278.143585 183.102509,286.694031 
	C182.490341,291.618958 182.114838,296.607391 182.106888,301.567993 
	C182.033447,347.341675 182.034103,393.115570 182.102448,438.889282 
	C182.110596,444.349823 182.651627,449.809601 182.966583,455.707397 
z"/>
<path fill="#C3CEDC" opacity="1.000000" stroke="none" 
	d="
M293.015747,511.268799 
	C294.797028,510.549469 296.565765,510.112152 298.335083,510.109894 
	C330.454559,510.068726 362.574036,510.079834 394.693542,510.079834 
	C396.638947,510.079834 398.584320,510.079865 401.309998,510.079865 
	C401.309998,497.864410 401.309998,486.271149 401.448303,474.202820 
	C405.361755,473.800751 409.136871,473.873749 413.355865,473.913330 
	C412.871155,483.624695 411.912018,493.366791 411.039734,503.116638 
	C410.862885,505.093170 411.014099,507.098999 411.014099,509.725159 
	C412.804199,509.877014 414.547546,510.024902 416.742462,510.266724 
	C417.194061,515.315002 417.194061,520.269287 417.194061,525.608276 
	C375.627838,525.608276 334.684418,525.608276 293.003479,525.608276 
	C293.003479,520.928040 293.003479,516.340698 293.015747,511.268799 
z"/>
<path fill="#C4CEDC" opacity="1.000000" stroke="none" 
	d="
M210.939331,326.601868 
	C225.704819,326.145782 240.498459,326.145782 255.712723,326.145782 
	C255.836014,323.980804 256.005005,322.377014 256.006653,320.773071 
	C256.023071,304.778809 255.989136,288.784546 256.015472,272.790314 
	C256.037994,259.107239 253.488052,246.035843 246.886185,233.536255 
	C251.626724,237.991119 257.247375,242.228226 261.108093,247.705765 
	C269.099365,259.043671 271.551880,272.412109 271.859924,286.005920 
	C272.244904,302.994873 271.972717,319.998840 271.959229,336.996338 
	C271.958069,338.449493 271.769165,339.902527 271.647186,341.645569 
	C251.449234,341.645569 231.557327,341.645569 210.967484,341.645569 
	C210.967484,336.612885 210.967484,331.835419 210.939331,326.601868 
z"/>
<path fill="#C3CEDC" opacity="1.000000" stroke="none" 
	d="
M426.916840,510.690887 
	C440.984009,510.253326 455.110474,510.253326 469.766510,510.253326 
	C471.016174,493.690674 472.222534,477.701660 473.488342,460.924835 
	C478.481812,460.924835 483.404236,460.924683 488.326660,460.924866 
	C494.490906,460.925079 500.658325,461.042023 506.818054,460.875122 
	C509.757446,460.795502 511.001343,461.675171 511.027100,464.788635 
	C511.058563,468.594452 511.626038,472.395844 511.925293,476.634827 
	C504.573853,477.070496 497.258881,477.070496 489.295044,477.070496 
	C488.065674,493.145844 486.844971,509.107910 485.588745,525.534424 
	C465.955261,525.534424 446.284607,525.534424 426.339874,525.534424 
	C426.556793,520.622864 426.766449,515.875671 426.916840,510.690887 
z"/>
<path fill="#C4CEDC" opacity="1.000000" stroke="none" 
	d="
M748.075806,284.573700 
	C748.428162,291.102539 748.636169,297.213715 749.072571,303.308594 
	C749.309937,306.623840 748.396667,308.024963 744.725525,307.990967 
	C726.802429,307.825043 708.876526,307.859985 690.952576,307.969360 
	C687.914917,307.987854 686.790161,306.998627 686.946289,303.959717 
	C687.133423,300.318756 686.966187,296.659576 686.947449,292.548035 
	C702.045593,292.087738 717.148682,292.087738 733.013184,292.087738 
	C733.786926,270.582001 731.046692,250.417953 721.197998,231.215942 
	C730.036255,234.735031 734.436218,242.660995 738.591370,250.501114 
	C744.136963,260.964905 746.593262,272.450867 748.075806,284.573700 
z"/>
<path fill="#C3CEDC" opacity="1.000000" stroke="none" 
	d="
M850.980957,292.506226 
	C866.080078,291.968628 881.190430,291.896149 896.300659,291.804932 
	C896.601624,291.803101 896.901367,291.581635 897.930664,291.173859 
	C897.522156,270.622986 895.497742,250.255737 885.368530,231.132080 
	C893.079712,234.235474 897.418945,240.955444 901.324097,247.854034 
	C909.075195,261.546539 911.970032,276.612976 913.005737,292.129700 
	C913.247864,295.757629 913.538757,299.383667 913.889648,303.002625 
	C914.199646,306.200073 913.356384,307.985840 909.618896,307.962585 
	C891.505859,307.849731 873.391541,307.867004 855.278198,307.950867 
	C851.978699,307.966156 850.859924,306.570801 850.992065,303.437073 
	C851.138977,299.954010 851.004272,296.459076 850.980957,292.506226 
z"/>
<path fill="#C2CDDB" opacity="1.000000" stroke="none" 
	d="
M829.837646,306.800476 
	C819.390381,299.046173 811.016785,289.388245 808.300720,276.023743 
	C805.824463,263.839172 814.239258,255.504013 826.062683,258.020233 
	C832.263611,259.339905 834.923462,263.795868 835.040039,273.558167 
	C826.154480,274.415161 822.413208,283.003998 824.366211,292.229187 
	C825.403870,297.130432 827.961121,301.709930 829.837646,306.800476 
z"/>
<path fill="#C3CEDC" opacity="1.000000" stroke="none" 
	d="
M662.137207,456.170349 
	C652.555481,457.517670 646.527527,451.694183 646.051025,440.445740 
	C645.721985,432.679504 645.940613,424.891113 645.828735,417.113861 
	C645.803101,415.329102 645.425476,413.549377 645.146118,411.353210 
	C648.902466,410.988220 652.734802,411.245941 656.539185,411.024933 
	C659.992249,410.824280 661.196533,411.964844 661.122437,415.516296 
	C660.914368,425.483429 660.965576,435.458893 661.096558,445.428680 
	C661.141907,448.883942 661.721741,452.332214 662.137207,456.170349 
z"/>
<path fill="#C2CDDB" opacity="1.000000" stroke="none" 
	d="
M495.083862,411.862946 
	C489.626831,411.862946 484.169769,411.862946 478.082794,411.862946 
	C481.910706,359.722351 485.707794,308.001465 489.504883,256.280579 
	C490.425964,256.263367 491.347015,256.246155 492.268097,256.228943 
	C495.169525,286.486481 497.827148,316.769073 499.793243,347.852478 
	C498.919098,357.354858 498.434998,366.097260 497.823792,374.830811 
	C496.959656,387.178284 496.001678,399.519226 495.083862,411.862946 
z"/>
<path fill="#FEFEFF" opacity="1.000000" stroke="none" 
	d="
M495.535797,411.917511 
	C496.001678,399.519226 496.959656,387.178284 497.823792,374.830811 
	C498.434998,366.097260 498.919098,357.354858 499.731537,348.306122 
	C500.815674,355.876740 501.704437,363.750702 502.423645,371.640106 
	C503.625275,384.821747 504.718536,398.013245 505.924072,411.972076 
	C502.461090,411.972076 499.224426,411.972076 495.535797,411.917511 
z"/>
<path fill="#C3CEDC" opacity="1.000000" stroke="none" 
	d="
M670.926514,273.639160 
	C664.539673,274.409973 660.572083,278.702087 659.900085,285.187347 
	C659.107117,292.839661 661.858643,299.461304 665.145142,306.382904 
	C654.003967,297.633270 644.462524,287.438354 644.026794,271.915314 
	C643.770081,262.765472 649.239746,257.383453 657.996460,257.417572 
	C666.240906,257.449738 670.767273,262.436157 670.965698,271.707550 
	C670.976379,272.205994 670.971313,272.704773 670.926514,273.639160 
z"/>
<path fill="#C4CEDC" opacity="1.000000" stroke="none" 
	d="
M809.969482,411.461243 
	C813.164978,411.023376 816.350647,411.342926 819.468811,411.016937 
	C824.410095,410.500275 826.176392,412.150269 826.049500,417.342773 
	C825.737183,430.123505 826.028381,442.919006 826.144958,456.138184 
	C816.630676,457.438232 810.446228,450.983795 810.078735,439.226776 
	C809.794617,430.134857 809.962463,421.028778 809.969482,411.461243 
z"/>
</svg>