<svg xmlns="http://www.w3.org/2000/svg" xmlns:xlink="http://www.w3.org/1999/xlink" version="1.1" x="0px" y="0px" viewBox="0 0 100 125" enable-background="new 0 0 100 100" xml:space="preserve"><g><path d="M89.469,5.051H10.988c-3.168,0-5.76,2.592-5.76,5.76v2.475v76.005c0,3.168,2.592,5.76,5.76,5.76h78.481   c3.168,0,5.76-2.592,5.76-5.76V13.286v-2.475C95.229,7.643,92.637,5.051,89.469,5.051z M21,11.855h67.71   c0.908,0,1.646,0.736,1.646,1.645s-0.736,1.645-1.646,1.645H21c-0.908,0-1.645-0.736-1.645-1.645S20.092,11.855,21,11.855z    M14.128,10.665c1.566,0,2.835,1.27,2.835,2.835s-1.27,2.835-2.835,2.835s-2.835-1.27-2.835-2.835   C11.293,11.934,12.563,10.665,14.128,10.665z M89.469,90.051H10.988c-0.405,0-0.76-0.355-0.76-0.76V21.127h80v68.164   C90.229,89.695,89.873,90.051,89.469,90.051z"/></g><g><polygon points="19.74,35.878 21.058,38.547 24.002,38.975 21.872,41.053 22.375,43.986 19.74,42.601 17.106,43.986 17.609,41.053    15.478,38.975 18.423,38.547  "/></g><g><polygon points="29.857,35.878 31.174,38.547 34.119,38.975 31.988,41.053 32.491,43.986 29.857,42.601 27.222,43.986    27.726,41.053 25.594,38.975 28.54,38.547  "/></g><g><polygon points="39.973,35.878 41.29,38.547 44.235,38.975 42.104,41.053 42.606,43.986 39.973,42.601 37.339,43.986    37.842,41.053 35.71,38.975 38.655,38.547  "/></g><g><polygon points="50.09,35.878 51.406,38.547 54.352,38.975 52.221,41.053 52.724,43.986 50.09,42.601 47.454,43.986 47.958,41.053    45.827,38.975 48.772,38.547  "/></g><g><path d="M60.206,37.584l0.641,1.297l0.176,0.356l0.393,0.057l1.431,0.208l-1.036,1.01l-0.284,0.277l0.067,0.391l0.244,1.425   l-1.279-0.673l-0.352-0.185l-0.352,0.185l-1.28,0.673l0.245-1.425l0.067-0.392l-0.284-0.277l-1.036-1.01l1.431-0.208l0.393-0.057   l0.176-0.356L60.206,37.584 M60.206,35.878l-1.317,2.669l-2.945,0.428l2.132,2.078l-0.504,2.934l2.635-1.385l2.634,1.385   l-0.503-2.934l2.131-2.078l-2.944-0.428L60.206,35.878L60.206,35.878z"/></g><g><path d="M83.263,53.756h-45.77c-0.829,0-1.5-0.672-1.5-1.5s0.671-1.5,1.5-1.5h45.77c0.828,0,1.5,0.672,1.5,1.5   S84.091,53.756,83.263,53.756z"/></g><g><path d="M83.263,61.771h-45.77c-0.829,0-1.5-0.672-1.5-1.5s0.671-1.5,1.5-1.5h45.77c0.828,0,1.5,0.672,1.5,1.5   S84.091,61.771,83.263,61.771z"/></g><g><path d="M83.263,69.788H17.193c-0.829,0-1.5-0.672-1.5-1.5s0.671-1.5,1.5-1.5h66.069c0.828,0,1.5,0.672,1.5,1.5   S84.091,69.788,83.263,69.788z"/></g><g><path d="M83.263,77.804H17.193c-0.829,0-1.5-0.672-1.5-1.5s0.671-1.5,1.5-1.5h66.069c0.828,0,1.5,0.672,1.5,1.5   S84.091,77.804,83.263,77.804z"/></g><g><g><path d="M23.696,55.481c1.666,0,3.015-1.35,3.015-3.015s-1.35-3.016-3.015-3.016c-1.665,0-3.015,1.35-3.015,3.016    C20.681,54.131,22.031,55.481,23.696,55.481"/></g></g><g><g><path d="M31.021,62.086v-2.921c0-2.18-1.775-2.725-3.942-2.725h-6.767c-2.167,0-3.942,0.545-3.942,2.725v2.921H31.021z"/></g></g><text x="0" y="115" fill="#000000" font-size="5px" font-weight="bold" font-family="'Helvetica Neue', Helvetica, Arial-Unicode, Arial, Sans-serif">Created by Sharon Showalter</text><text x="0" y="120" fill="#000000" font-size="5px" font-weight="bold" font-family="'Helvetica Neue', Helvetica, Arial-Unicode, Arial, Sans-serif">from the Noun Project</text></svg>